Results
version=1
nRows=26
nColumns=24
inDegrees=yes
endheader
time	pelvis_tilt	pelvis_list	pelvis_rotation	pelvis_tx	pelvis_ty	pelvis_tz	hip_flexion_r	hip_adduction_r	hip_rotation_r	knee_angle_r	ankle_angle_r	subtalar_angle_r	mtp_angle_r	hip_flexion_l	hip_adduction_l	hip_rotation_l	knee_angle_l	ankle_angle_l	subtalar_angle_l	mtp_angle_l	lumbar_extension	lumbar_bending	lumbar_rotation
      0.92350000	      0.78064820	      2.81297156	     -5.81485590	     -0.14803760	      1.00637345	      0.26930266	    -12.29359566	     -0.80369840	     -0.59364195	    -11.09758013	     10.33913589	     -3.90861094	     11.61125982	     18.28825041	      2.57911162	    -13.00651089	      0.77217677	     -1.98574752	     -3.31195465	      6.29032916	     -5.46995394	     -2.04763416	     12.88492849
      0.92766667	      0.79364509	      2.84044924	     -5.83815025	     -0.14209322	      1.00585338	      0.26897629	    -12.36544716	     -0.90741492	     -0.62697531	    -11.71332075	     10.41068131	     -3.77229248	     11.61229242	     18.19377298	      2.68589716	    -12.68635636	      0.78438009	     -1.98138757	     -3.35729234	      6.38104295	     -5.44004093	     -2.09575766	     12.92346283
      0.93183333	      0.83887884	      2.88022912	     -5.87231227	     -0.13610673	      1.00542122	      0.26864819	    -12.44540921	     -1.03670337	     -0.69224398	    -12.37903548	     10.44745787	     -3.55683552	     11.63359387	     18.04354421	      2.80894655	    -12.32391743	      0.76455850	     -2.04051291	     -3.49914542	      6.51729092	     -5.42802531	     -2.14961263	     12.96620103
      0.93600000	      0.87129394	      2.93996585	     -5.88537954	     -0.13011582	      1.00499579	      0.26833186	    -12.49935747	     -1.17345170	     -0.71838960	    -13.07003379	     10.47573213	     -3.46009315	     11.66357932	     17.93205317	      2.94709896	    -11.94604175	      0.62569420	     -2.10488068	     -3.60367956	      6.61589840	     -5.42044342	     -2.25508933	     12.99170776
      0.94016667	      0.92745101	      3.00121673	     -5.91906091	     -0.12408265	      1.00464992	      0.26799587	    -12.53951352	     -1.33115939	     -0.79893599	    -13.83604583	     10.46564049	     -3.22398257	     11.73246811	     17.76046614	      3.09206318	    -11.50744634	      0.49462439	     -2.25590857	     -3.86628868	      6.76676127	     -5.41201758	     -2.33797307	     13.02000115
      0.94433333	      0.95475733	      3.07584195	     -5.94014371	     -0.11803443	      1.00429922	      0.26766157	    -12.52808765	     -1.49328636	     -0.85498093	    -14.64107930	     10.41998842	     -3.06181460	     11.83790699	     17.63658083	      3.24526061	    -11.05724570	      0.27421736	     -2.43765371	     -4.14346501	      6.94473416	     -5.38006056	     -2.44530761	     13.03564823
      0.94850000	      1.02553913	      3.16088669	     -5.95392374	     -0.11197454	      1.00404003	      0.26732017	    -12.54260401	     -1.67080575	     -0.92405674	    -15.48410399	     10.33670000	     -2.89893194	     11.99508643	     17.46861030	      3.41439400	    -10.60200690	      0.00142790	     -2.66058063	     -4.45268466	      7.15581014	     -5.40160078	     -2.57690066	     13.04168273
      0.95266667	      1.07574687	      3.25595466	     -5.97243095	     -0.10587886	      1.00378538	      0.26698159	    -12.50338979	     -1.85888260	     -0.98847051	    -16.38741422	     10.22655202	     -2.74718386	     12.17932320	     17.31652445	      3.58980965	    -10.14318042	     -0.30081571	     -2.91234031	     -4.77995224	      7.35808522	     -5.38673453	     -2.71512507	     13.04330533
      0.95683333	      1.11519079	      3.35978613	     -5.99198574	     -0.09975465	      1.00354845	      0.26663612	    -12.41954380	     -2.05795281	     -1.05455843	    -17.35252369	     10.07741509	     -2.60631604	     12.37952421	     17.17027600	      3.77242868	     -9.68094640	     -0.62552831	     -3.19607199	     -5.12023404	      7.54065815	     -5.34670051	     -2.86342989	     13.03217790
      0.96100000	      1.16629856	      3.46302348	     -5.99481855	     -0.09363362	      1.00336474	      0.26628318	    -12.33210269	     -2.25009447	     -1.11304861	    -18.33807048	      9.81209751	     -2.60445251	     15.51083273	     17.03078299	      3.95410909	     -9.24170985	     -1.01558563	     -3.52167550	     -5.51106986	      9.99937102	     -5.33209426	     -3.01985592	     12.98419594
      0.96516667	      1.24345462	      3.59184587	     -6.02256785	     -0.08747802	      1.00325650	      0.26592928	    -12.22217447	     -2.48976954	     -1.20498490	    -19.41837803	      9.57172737	     -2.40970666	     15.54684194	     16.84856409	      4.16102064	     -8.86736804	     -1.39755634	     -3.85185172	     -5.81156230	     10.01977767	     -5.33449883	     -3.20468571	     12.99434440
      0.96933333	      1.30359069	      3.71435372	     -6.03105202	     -0.08134132	      1.00314753	      0.26555424	    -12.06431869	     -2.71492032	     -1.29323897	    -20.55100869	      9.27793777	     -2.27286429	     15.63054080	     16.69341503	      4.36224197	     -8.45407084	     -1.81490832	     -4.19981649	     -6.21762767	     10.04415199	     -5.32385045	     -3.38179312	     12.95896497
      0.97350000	      1.37174816	      3.83691027	     -6.03041945	     -0.07521175	      1.00309050	      0.26516557	    -11.88856022	     -2.93902581	     -1.38289930	    -21.72570818	      8.92701924	     -2.14963998	     15.78952032	     16.54075431	      4.56364120	     -8.05619998	     -2.27102401	     -4.55602746	     -6.66309843	     10.07483957	     -5.33311041	     -3.56304964	     12.91589839
      0.97766667	      1.46421981	      3.97632502	     -6.03064636	     -0.06905455	      1.00309700	      0.26476788	    -11.70560856	     -3.18951298	     -1.49117911	    -22.95496628	      8.49684114	     -2.04796512	     16.11529011	     16.34594244	      4.78678098	     -7.65941094	     -2.70546234	     -4.88605442	     -7.10732829	     10.11728521	     -5.35389537	     -3.76478956	     12.86147458
      0.98183333	      1.50812765	      4.11460050	     -6.05362575	     -0.06291362	      1.00306192	      0.26439379	    -11.41489906	     -3.44061636	     -1.56317633	    -24.27660116	      8.05825501	     -1.96568110	     16.30150070	     16.21855538	      4.98632031	     -7.41677446	     -3.17486033	     -5.24021071	     -7.38583308	     10.13119050	     -5.31308921	     -3.95484654	     12.79216242
      0.98600000	      1.57755027	      4.26063062	     -6.05318690	     -0.05679278	      1.00309875	      0.26397601	    -11.12669892	     -3.70414272	     -1.67427650	    -25.63460112	      7.55361871	     -1.85092199	     16.58025594	     16.06523612	      5.20571655	     -7.11013373	     -3.65392391	     -5.57441540	     -7.80341807	     10.14174109	     -5.31319948	     -4.15869507	     12.71660260
      0.99016667	      1.64981528	      4.41042403	     -6.05560536	     -0.05067717	      1.00316467	      0.26356626	    -10.80531972	     -3.97390891	     -1.77576291	    -27.04660426	      6.98300874	     -1.78734331	     16.88840518	     15.90734043	      5.42369164	     -6.85523302	     -4.13597939	     -5.86909108	     -8.14878688	     10.14303972	     -5.31675239	     -4.36870749	     12.62860264
      0.99433333	      1.74560351	      4.56118429	     -6.04138580	     -0.04460123	      1.00328687	      0.26313176	    -10.48661820	     -4.24691887	     -1.88871754	    -28.47835643	      6.29595302	     -1.82856797	     21.41883309	     15.73841454	      5.64667795	     -6.60405449	     -4.65306203	     -6.09351963	     -8.48479840	     10.03559677	     -5.36792631	     -4.59932616	     12.52896392
      0.99850000	      1.81201480	      4.71661622	     -6.04570166	     -0.03852844	      1.00339924	      0.26270836	    -10.08778632	     -4.53122701	     -1.98654746	    -29.99046614	      5.62614213	     -1.77595985	     21.45549366	     15.59673351	      5.86168292	     -6.44659875	     -5.16136254	     -6.31002742	     -8.73033417	     10.02396603	     -5.36278196	     -4.80962698	     12.43990467
      1.00266667	      1.89859690	      4.88469322	     -6.04656929	     -0.03247584	      1.00356467	      0.26229549	     -9.68622426	     -4.82823705	     -2.06639472	    -31.52894148	      4.88810956	     -1.77960856	     21.49600871	     15.42789063	      6.09128824	     -6.28418501	     -5.66223891	     -6.44618101	     -8.92587947	     10.01143643	     -5.39087498	     -5.06030791	     12.34647123
      1.00683333	      1.95660724	      5.04593593	     -6.03258130	     -0.02649121	      1.00369378	      0.26182532	     -9.20782102	     -5.12639144	     -2.18750975	    -33.14161476	      4.19438213	     -1.74621185	     21.59777377	     15.29661928	      6.31719386	     -6.10304685	     -6.17136585	     -6.61377462	     -9.27264029	      9.97796163	     -5.39280492	     -5.27225052	     12.20146550
      1.01100000	      2.03579712	      5.21519038	     -6.02078961	     -0.02053205	      1.00388054	      0.26137597	     -8.73088904	     -5.43231018	     -2.28154859	    -34.76929538	      3.43253588	     -1.77742149	     21.71513763	     15.13450410	      6.55129407	     -5.93918411	     -6.66639416	     -6.70183387	     -9.53088907	      9.93469876	     -5.42604209	     -5.50751291	     12.06416205
      1.01516667	      2.10659970	      5.38881068	     -6.00902428	     -0.01460406	      1.00406999	      0.26092323	     -8.21713290	     -5.74435656	     -2.36540779	    -36.42586137	      2.65204904	     -1.84452244	     21.82685262	     14.97798914	      6.78845967	     -5.79515554	     -7.15530781	     -6.73653830	     -9.75050514	      9.88629812	     -5.44956367	     -5.75170281	     11.92444353
      1.01933333	      2.18487327	      5.56635901	     -5.99446269	     -0.00871769	      1.00428594	      0.26045490	     -7.68587359	     -6.06595855	     -2.45265782	    -38.10633195	      1.87577524	     -1.93871792	     21.95202134	     14.80548531	      7.03421174	     -5.65135019	     -7.62627430	     -6.72730907	     -9.98246384	      9.81965241	     -5.48083752	     -5.99079846	     11.76456393
      1.02350000	      2.26740927	      5.74545980	     -5.97868907	     -0.00287819	      1.00452890	      0.26001047	     -7.13868563	     -6.38546335	     -2.52276874	    -39.79727055	      1.10843663	     -2.07818158	     22.04271510	     14.62070104	      7.28031749	     -5.51840233	     -8.08072406	     -6.67645179	    -10.16940730	      9.75472940	     -5.53411849	     -6.24230479	     11.61119235
      1.02766667	      2.32550771	      5.91598341	     -5.95793037	      0.00291952	      1.00475635	      0.25954270	     -6.54684156	     -6.69394532	     -2.58363798	    -41.49330687	      0.35037140	     -2.25843737	     22.14297930	     14.44963560	      7.52172560	     -5.35832704	     -8.51267783	     -6.56344849	    -10.39213231	      9.64524606	     -5.55583596	     -6.46606186	     11.43038386
